{
  "accessors": [
    {
      "bufferView": 2,
      "componentType": 5126,
      "count": 78,
      "max": [
        1604.64794921875,
        1043.2760009765625,
        2877.952880859375
      ],
      "min": [
        -1729.616943359375,
        -1801.7230224609375,
        -1.3022829481457165e-09
      ],
      "type": "VEC3"
    },
    {
      "bufferView": 0,
      "componentType": 5125,
      "count": 100,
      "type": "SCALAR"
    },
    {
      "bufferView": 2,
      "byteOffset": 936,
      "componentType": 5126,
      "count": 3224,
      "max": [
        1631.56005859375,
        1664.9449462890625,
        3464.56689453125
      ],
      "min": [
        -2037.781005859375,
        -2104.180908203125,
        -82.28346252441406
      ],
      "type": "VEC3"
    },
    {
      "bufferView": 0,
      "byteOffset": 400,
      "componentType": 5125,
      "count": 9610,
      "type": "SCALAR"
    },
    {
      "bufferView": 2,
      "byteOffset": 39624,
      "componentType": 5126,
      "count": 9340,
      "max": [
        1631.56005859375,
        1664.9449462890625,
        3464.56689453125
      ],
      "min": [
        -2037.781005859375,
        -2104.180908203125,
        -82.28346252441406
      ],
      "type": "VEC3"
    },
    {
      "bufferView": 2,
      "byteOffset": 151704,
      "componentType": 5126,
      "count": 9340,
      "max": [
        1.0,
        1.0,
        1.0
      ],
      "min": [
        -1.0,
        -1.0,
        -1.0
      ],
      "type": "VEC3"
    },
    {
      "bufferView": 1,
      "componentType": 5126,
      "count": 9340,
      "max": [
        7.201621055603027,
        35.12321853637695
      ],
      "min": [
        -102.3895034790039,
        -73.23210144042969
      ],
      "type": "VEC2"
    },
    {
      "bufferView": 0,
      "byteOffset": 38840,
      "componentType": 5125,
      "count": 18891,
      "type": "SCALAR"
    },
    {
      "bufferView": 2,
      "byteOffset": 263784,
      "componentType": 5126,
      "count": 47,
      "max": [
        744.62060546875,
        486.2641906738281,
        3055.117919921875
      ],
      "min": [
        -1747.446044921875,
        -558.9611206054688,
        -3.4532379126345214e-12
      ],
      "type": "VEC3"
    },
    {
      "bufferView": 2,
      "byteOffset": 264348,
      "componentType": 5126,
      "count": 47,
      "max": [
        0.9991288185119629,
        0.4954586923122406,
        1.0
      ],
      "min": [
        -0.8686314821243286,
        -1.4606580389653345e-09,
        -1.0
      ],
      "type": "VEC3"
    },
    {
      "bufferView": 0,
      "byteOffset": 114404,
      "componentType": 5125,
      "count": 90,
      "type": "SCALAR"
    }
  ],
  "asset": {
    "extras": {
      "author": "EddyNL (https://sketchfab.com/EddyNL)",
      "license": "CC-BY-4.0 (http://creativecommons.org/licenses/by/4.0/)",
      "source": "https://sketchfab.com/3d-models/the-tower-of-babel-cities-skylines-f167d1ce948a4e678547d9f023ba6c0d",
      "title": "The Tower of Babel - Cities Skylines"
    },
    "generator": "Sketchfab-11.41.0",
    "version": "2.0"
  },
  "bufferViews": [
    {
      "buffer": 0,
      "byteLength": 114764,
      "name": "floatBufferViews",
      "target": 34963
    },
    {
      "buffer": 0,
      "byteLength": 74720,
      "byteOffset": 114764,
      "byteStride": 8,
      "name": "floatBufferViews",
      "target": 34962
    },
    {
      "buffer": 0,
      "byteLength": 264912,
      "byteOffset": 189484,
      "byteStride": 12,
      "name": "floatBufferViews",
      "target": 34962
    }
  ],
  "buffers": [
    {
      "byteLength": 454396,
      "uri": "scene.bin"
    }
  ],
  "images": [
    {
      "uri": "textures/LoamWalls0069_1_S_baseColor.png"
    }
  ],
  "materials": [
    {
      "alphaMode": "BLEND",
      "name": "edge_color000255",
      "pbrMetallicRoughness": {
        "baseColorFactor": [
          1.0,
          1.0,
          1.0,
          0.0
        ],
        "metallicFactor": 0.0,
        "roughnessFactor": 0.6
      }
    },
    {
      "name": "edge_color179151109255",
      "pbrMetallicRoughness": {
        "metallicFactor": 0.0,
        "roughnessFactor": 0.6
      }
    },
    {
      "name": "LoamWalls0069_1_S",
      "pbrMetallicRoughness": {
        "baseColorTexture": {
          "index": 0
        },
        "roughnessFactor": 0.6
      }
    },
    {
      "name": "material",
      "pbrMetallicRoughness": {
        "metallicFactor": 0.0,
        "roughnessFactor": 0.6
      }
    }
  ],
  "meshes": [
    {
      "name": "Material5",
      "primitives": [
        {
          "attributes": {
            "POSITION": 0
          },
          "indices": 1,
          "material": 1,
          "mode": 1
        }
      ]
    },
    {
      "name": "Material2",
      "primitives": [
        {
          "attributes": {
            "POSITION": 2
          },
          "indices": 3,
          "material": 0,
          "mode": 1
        }
      ]
    },
    {
      "name": "Material2",
      "primitives": [
        {
          "attributes": {
            "NORMAL": 5,
            "POSITION": 4,
            "TEXCOORD_0": 6
          },
          "indices": 7,
          "material": 2,
          "mode": 4
        }
      ]
    },
    {
      "name": "Material3",
      "primitives": [
        {
          "attributes": {
            "NORMAL": 9,
            "POSITION": 8
          },
          "indices": 10,
          "material": 3,
          "mode": 4
        }
      ]
    }
  ],
  "nodes": [
    {
      "children": [
        1
      ],
      "matrix": [
        0.010620723478496075,
        0.0,
        0.0,
        0.0,
        0.0,
        2.358274348800665e-18,
        -0.010620723478496075,
        0.0,
        0.0,
        0.010620723478496075,
        2.358274348800665e-18,
        0.0,
        0.0,
        0.0,
        0.0,
        1.0
      ],
      "name": "Sketchfab_model"
    },
    {
      "children": [
        2
      ],
      "name": "Collada visual scene group"
    },
    {
      "children": [
        5,
        6,
        7,
        8,
        3
      ],
      "name": "SketchUp"
    },
    {
      "children": [
        4
      ],
      "matrix": [
        0.9609219,
        0.2768198,
        0.0,
        0.0,
        -0.08681908,
        0.3013743,
        0.9495451,
        0.0,
        0.2628529,
        -0.9124387,
        0.3136303,
        0.0,
        1988.13,
        -8179.095,
        3802.633,
        1.0
      ],
      "name": "skp_camera_Last_Saved_SketchUp_View"
    },
    {
      "name": "ID1"
    },
    {
      "mesh": 0,
      "name": "Material5"
    },
    {
      "mesh": 1,
      "name": "Material2"
    },
    {
      "mesh": 2,
      "name": "Material2"
    },
    {
      "mesh": 3,
      "name": "Material3"
    }
  ],
  "samplers": [
    {
      "magFilter": 9729,
      "minFilter": 9987,
      "wrapS": 10497,
      "wrapT": 10497
    }
  ],
  "scene": 0,
  "scenes": [
    {
      "name": "Sketchfab_Scene",
      "nodes": [
        0
      ]
    }
  ],
  "textures": [
    {
      "sampler": 0,
      "source": 0
    }
  ]
}
