{
  "accessors": [
    {
      "bufferView": 1,
      "componentType": 5126,
      "count": 7101,
      "max": [
        94.231101989746094,
        31.64109992980957,
        74.806503295898438
      ],
      "min": [
        -94.231101989746094,
        -27.466100692749023,
        -4.6609001159667969
      ],
      "type": "VEC3"
    },
    {
      "bufferView": 1,
      "byteOffset": 85212,
      "componentType": 5126,
      "count": 7101,
      "max": [
        0.99907428026199341,
        0.99999427795410156,
        0.99972838163375854
      ],
      "min": [
        -0.99914884567260742,
        -0.99978369474411011,
        -0.99999797344207764
      ],
      "type": "VEC3"
    },
    {
      "bufferView": 0,
      "componentType": 5125,
      "count": 42192,
      "max": [
        7100
      ],
      "min": [
        0
      ],
      "type": "SCALAR"
    }
  ],
  "asset": {
    "extras": {
      "author": "LowPoly (https://sketchfab.com/g_a_s)",
      "license": "CC-BY-4.0 (http://creativecommons.org/licenses/by/4.0/)",
      "source": "https://sketchfab.com/3d-models/armored-jacket-4e23fa1a935245edb4c3e13b24c56e5f",
      "title": "Armored Jacket"
    },
    "generator": "Sketchfab-7.99.0",
    "version": "2.0"
  },
  "bufferViews": [
    {
      "buffer": 0,
      "byteLength": 168768,
      "byteOffset": 0,
      "name": "floatBufferViews",
      "target": 34963
    },
    {
      "buffer": 0,
      "byteLength": 170424,
      "byteOffset": 168768,
      "byteStride": 12,
      "name": "floatBufferViews",
      "target": 34962
    }
  ],
  "buffers": [
    {
      "byteLength": 339192,
      "uri": "scene.bin"
    }
  ],
  "materials": [
    {
      "doubleSided": true,
      "name": "material_0",
      "pbrMetallicRoughness": {
        "baseColorFactor": [
          0.61286624991649274,
          0.61286624991649274,
          0.61286624991649274,
          1
        ],
        "metallicFactor": 0,
        "roughnessFactor": 0.59999999999999998
      }
    }
  ],
  "meshes": [
    {
      "primitives": [
        {
          "attributes": {
            "NORMAL": 1,
            "POSITION": 0
          },
          "indices": 2,
          "material": 0,
          "mode": 4
        }
      ]
    }
  ],
  "nodes": [
    {
      "children": [
        1
      ],
      "name": "RootNode (gltf orientation matrix)",
      "rotation": [
        -0.70710678118654746,
        -0,
        -0,
        0.70710678118654757
      ]
    },
    {
      "children": [
        2
      ],
      "name": "RootNode (model correction matrix)"
    },
    {
      "children": [
        3
      ],
      "name": "armored_jacket.obj.cleaner.materialmerger.gles"
    },
    {
      "mesh": 0,
      "name": ""
    }
  ],
  "scene": 0,
  "scenes": [
    {
      "name": "OSG_Scene",
      "nodes": [
        0
      ]
    }
  ]
}

